<svg preserveAspectRatio="none" width="284" height="88" viewBox="0 0 284 88" fill="none" xmlns="http://www.w3.org/2000/svg">
<path d="M0.421875 87V18.25H13.7031V87H0.421875ZM19.1719 87V18.25H40.1094L45.8906 60.1641L51.6328 18.25H72.7656V87H60.1875V37.4688L52.2969 87H39.9531L31.5938 37.4688V87H19.1719Z" fill="white"/>
<path d="M80.8086 87V1.0625H103.514C108.266 1.0625 112.026 2.12044 114.793 4.23633C117.592 6.35221 119.594 9.36328 120.799 13.2695C122.003 17.1758 122.605 21.8307 122.605 27.2344C122.605 32.4427 122.101 36.9837 121.092 40.8574C120.083 44.6986 118.276 47.6771 115.672 49.793C113.1 51.9089 109.438 52.9668 104.686 52.9668H97.7031V87H80.8086ZM97.7031 37.5371H98.6797C101.87 37.5371 103.823 36.6419 104.539 34.8516C105.255 33.0612 105.613 30.4245 105.613 26.9414C105.613 23.6862 105.255 21.1797 104.539 19.4219C103.855 17.6315 102.212 16.7363 99.6074 16.7363H97.7031V37.5371ZM128.074 87V1.0625H154.441C158.836 1.0625 162.156 2.07161 164.402 4.08984C166.648 6.07552 168.146 8.875 168.895 12.4883C169.676 16.069 170.066 20.2845 170.066 25.1348C170.066 29.8223 169.464 33.5658 168.26 36.3652C167.088 39.1647 164.858 41.1016 161.57 42.1758C164.272 42.7292 166.16 44.0801 167.234 46.2285C168.341 48.3444 168.895 51.0951 168.895 54.4805V87H151.951V53.3574C151.951 50.8509 151.43 49.3047 150.389 48.7188C149.38 48.1003 147.736 47.791 145.457 47.791V87H128.074ZM145.555 32.8984H149.705C152.081 32.8984 153.27 30.3105 153.27 25.1348C153.27 21.7819 153.009 19.5846 152.488 18.543C151.967 17.5013 150.991 16.9805 149.559 16.9805H145.555V32.8984ZM196.238 87.7812C189.37 87.7812 184.113 85.7142 180.467 81.5801C176.854 77.4134 175.047 71.4076 175.047 63.5625V22.7422C175.047 15.3854 176.837 9.80273 180.418 5.99414C184.031 2.18555 189.305 0.28125 196.238 0.28125C203.172 0.28125 208.429 2.18555 212.01 5.99414C215.623 9.80273 217.43 15.3854 217.43 22.7422V63.5625C217.43 71.4076 215.607 77.4134 211.961 81.5801C208.348 85.7142 203.107 87.7812 196.238 87.7812ZM196.385 71.9609C198.989 71.9609 200.291 69.4382 200.291 64.3926V22.4492C200.291 18.2174 199.021 16.1016 196.482 16.1016C193.618 16.1016 192.186 18.2663 192.186 22.5957V64.4902C192.186 67.1595 192.511 69.0801 193.162 70.252C193.813 71.3913 194.887 71.9609 196.385 71.9609Z" fill="white"/>
<path d="M231.203 61L223.786 0.80957H235.236L239.646 41.7568L243.576 0.80957H255.026L247.609 61H231.203ZM258.547 61V0.84375H282.609V12.4648H270.783V24.1885H282.131V35.502H270.783V49.2764H283.396V61H258.547Z" fill="white"/>
</svg>
